<?xml version="1.0" encoding="UTF-8"?>
<svg id="Capa_1" data-name="Capa 1" xmlns="http://www.w3.org/2000/svg" viewBox="0 0 56.69 56.69">
  <defs>
    <style>
      .cls-1 {
        fill: #ab1816;
      }

      .cls-1, .cls-2 {
        stroke-width: 0px;
      }

      .cls-2 {
        fill: #d81117;
      }
    </style>
  </defs>
  <path class="cls-2" d="M36.49,7.69c4.4,2.83,7.21,7.92,6.79,13.63-.53,7.35-6.53,13.28-13.88,13.75-8.66.55-15.85-6.32-15.85-14.86,0-5.53,3.02-10.36,7.5-12.93.16-.09.05-.35-.13-.28-8.67,3.11-14.83,11.51-14.56,21.32.31,11.5,9.63,20.93,21.13,21.37,12.54.48,22.85-9.55,22.85-21.98,0-9.2-5.65-17.07-13.67-20.36-.22-.09-.38.21-.18.34Z"/>
  <path class="cls-1" d="M36.67,7.36c-.22-.09-.38.21-.18.34,4.4,2.83,7.21,7.92,6.79,13.63-.53,7.35-6.53,13.28-13.88,13.75-.36.02-.71.03-1.06.03v14.6c12.15,0,21.99-9.84,21.99-21.99,0-9.2-5.65-17.07-13.67-20.36Z"/>
</svg>