<?xml version="1.0" encoding="UTF-8"?><svg id="Capa_1" xmlns="http://www.w3.org/2000/svg" viewBox="0 0 82 126.6"><defs><style>.cls-1{fill:#556f7b;stroke-width:0px;}</style></defs><path class="cls-1" d="m48.4,81.6v16.1h14.3v14.1h-14.5v14.8h-14.1c-.2-4.6-.4-9.3-.7-14.5h-14.1v-14.2h13.9v-16.5c-12.9-2.8-22.7-10-28.8-21.8C-.2,50.6-1.1,40.9,1.2,31,5.5,12.3,23.6-.9,43.7,0c19.2.9,35.2,16.4,38,36.9,2.7,19.8-10.2,37.3-33.2,44.7Zm-7.3-67c-13.9-1.1-27.1,11.8-27.2,26.2,0,12.9,10.3,26.7,26.9,26.7,16.8,0,26.8-13.8,27-26.7.2-14-12.4-26.2-26.7-26.3Z"/></svg>