<?xml version="1.0" encoding="UTF-8"?><svg id="Capa_1" xmlns="http://www.w3.org/2000/svg" viewBox="0 0 119.4 119.2"><defs><style>.cls-1{fill:#686868;stroke-width:0px;}</style></defs><path class="cls-1" d="m93,14.2c-4.4,0-8.9-.2-13.3,0-3.8.2-5.1-1.3-4.8-4.9.2-3,0-6,0-9.4h44.5c0,11.7,0,23.3,0,35,0,9.1-3.3,11.7-12.2,9.1-1-.3-2.1-2.3-2.2-3.6-.3-4.8-.1-9.5-.1-15.2-1.7,1.2-2.7,1.6-3.5,2.4-8.2,8.1-16.2,16.3-24.5,24.3-2,2-2.2,3.4-.8,6,15.8,29.1-4.4,62.1-37.4,61.4C18,118.7,0,99.9,0,78.5c0-22,17.5-40.5,38.7-41.1,8.2-.3,15.8,1.4,23,5.5,1.1.6,3.5.9,4.2.2,9.3-9,18.5-18.2,27.7-27.3-.2-.5-.4-1-.6-1.5Zm-52.3,90.3c14.9.1,26.9-11.6,27-26.3,0-14.4-12.3-26.7-26.8-26.8-14.4,0-26.3,11.9-26.4,26.3-.1,15.1,11.2,26.6,26.2,26.7Z"/></svg>