<?xml version="1.0" encoding="UTF-8"?>
<svg id="Capa_1" data-name="Capa 1" xmlns="http://www.w3.org/2000/svg" viewBox="0 0 176.59 171.41">
  <defs>
    <style>
      .cls-1 {
        fill: #ECDDFB;
        stroke-width: 0px;
      }
    </style>
  </defs>
  <path class="cls-1" d="m176.56,88.85c-.33,2.44-.66,4.88-1,7.32-5.14,36.81-34.58,67.46-71.18,73.74-28.73,4.93-54.24-2.23-75.88-21.83C13.01,134.06,3.76,116.44.88,95.71-4.41,57.55,14.39,21.62,48.63,4.18c3.13-1.59,6.45-2.82,9.71-4.14.07-.03.14-.04.21-.04.73-.03,1.02.97.41,1.36,0,0-.02.01-.03.02-15.66,9.32-25.66,22.83-29.04,40.73-6.24,33,14.67,63.72,47.56,70.42,32.49,6.61,65.23-15.69,70.52-48.47,3.92-24.33-4.39-44.08-23.81-59.19-.88-.68-1.9-1.19-2.76-1.89-.1-.08-.19-.18-.27-.29-.38-.51.02-1.25.65-1.19.15.01.29.05.41.11,5.23,2.77,10.73,5.17,15.57,8.51,21.63,14.89,34.23,35.5,38.04,61.48.29,1.98.52,3.96.78,5.95,0,3.78-.02,7.52-.03,11.3Z"/>
</svg>